<mxfile host="app.diagrams.net" modified="2022-04-26T12:19:42.864Z" agent="5.0 (Macintosh; Intel Mac OS X 10_15_7) AppleWebKit/537.36 (KHTML, like Gecko) Chrome/100.0.4896.127 Safari/537.36" etag="KvY4GCC5-ZqrBby6BS9b" version="17.4.6" type="github">
  <diagram id="kgpKYQtTHZ0yAKxKKP6v" name="Page-1">
    <mxGraphModel dx="839" dy="699" grid="1" gridSize="10" guides="1" tooltips="1" connect="1" arrows="1" fold="1" page="1" pageScale="1" pageWidth="850" pageHeight="1100" math="0" shadow="0">
      <root>
        <mxCell id="0" />
        <mxCell id="1" parent="0" />
        <mxCell id="vHpvUnkVteFoVvthPhQm-1" value="app.js" style="rounded=1;whiteSpace=wrap;html=1;" vertex="1" parent="1">
          <mxGeometry x="80" y="120" width="120" height="460" as="geometry" />
        </mxCell>
        <mxCell id="vHpvUnkVteFoVvthPhQm-8" style="edgeStyle=orthogonalEdgeStyle;rounded=1;orthogonalLoop=1;jettySize=auto;html=1;entryX=1.042;entryY=0.107;entryDx=0;entryDy=0;entryPerimeter=0;strokeColor=none;strokeWidth=2;startArrow=none;" edge="1" parent="1" source="vHpvUnkVteFoVvthPhQm-29" target="vHpvUnkVteFoVvthPhQm-1">
          <mxGeometry relative="1" as="geometry" />
        </mxCell>
        <mxCell id="vHpvUnkVteFoVvthPhQm-33" style="edgeStyle=orthogonalEdgeStyle;rounded=1;orthogonalLoop=1;jettySize=auto;html=1;strokeWidth=2;" edge="1" parent="1" source="vHpvUnkVteFoVvthPhQm-3">
          <mxGeometry relative="1" as="geometry">
            <mxPoint x="200" y="170" as="targetPoint" />
          </mxGeometry>
        </mxCell>
        <mxCell id="vHpvUnkVteFoVvthPhQm-3" value="breadCrumb.js" style="rounded=1;whiteSpace=wrap;html=1;" vertex="1" parent="1">
          <mxGeometry x="320" y="140" width="120" height="60" as="geometry" />
        </mxCell>
        <mxCell id="vHpvUnkVteFoVvthPhQm-23" style="edgeStyle=orthogonalEdgeStyle;rounded=1;orthogonalLoop=1;jettySize=auto;html=1;entryX=1.008;entryY=0.37;entryDx=0;entryDy=0;entryPerimeter=0;strokeWidth=2;startArrow=none;" edge="1" parent="1" source="vHpvUnkVteFoVvthPhQm-24" target="vHpvUnkVteFoVvthPhQm-1">
          <mxGeometry relative="1" as="geometry" />
        </mxCell>
        <mxCell id="vHpvUnkVteFoVvthPhQm-28" style="edgeStyle=orthogonalEdgeStyle;rounded=1;orthogonalLoop=1;jettySize=auto;html=1;entryX=1.017;entryY=0.37;entryDx=0;entryDy=0;entryPerimeter=0;strokeWidth=2;" edge="1" parent="1" source="vHpvUnkVteFoVvthPhQm-4" target="vHpvUnkVteFoVvthPhQm-1">
          <mxGeometry relative="1" as="geometry" />
        </mxCell>
        <mxCell id="vHpvUnkVteFoVvthPhQm-4" value="catNode.js" style="rounded=1;whiteSpace=wrap;html=1;" vertex="1" parent="1">
          <mxGeometry x="320" y="260" width="120" height="60" as="geometry" />
        </mxCell>
        <mxCell id="vHpvUnkVteFoVvthPhQm-26" style="edgeStyle=orthogonalEdgeStyle;rounded=1;orthogonalLoop=1;jettySize=auto;html=1;entryX=0.5;entryY=1;entryDx=0;entryDy=0;strokeWidth=2;" edge="1" parent="1" source="vHpvUnkVteFoVvthPhQm-5" target="vHpvUnkVteFoVvthPhQm-24">
          <mxGeometry relative="1" as="geometry" />
        </mxCell>
        <mxCell id="vHpvUnkVteFoVvthPhQm-5" value="imageViewer.js" style="rounded=1;whiteSpace=wrap;html=1;" vertex="1" parent="1">
          <mxGeometry x="320" y="380" width="120" height="60" as="geometry" />
        </mxCell>
        <mxCell id="vHpvUnkVteFoVvthPhQm-19" style="edgeStyle=orthogonalEdgeStyle;rounded=1;orthogonalLoop=1;jettySize=auto;html=1;entryX=1.025;entryY=0.891;entryDx=0;entryDy=0;entryPerimeter=0;strokeWidth=2;" edge="1" parent="1" source="vHpvUnkVteFoVvthPhQm-6" target="vHpvUnkVteFoVvthPhQm-1">
          <mxGeometry relative="1" as="geometry" />
        </mxCell>
        <mxCell id="vHpvUnkVteFoVvthPhQm-6" value="loading.js" style="rounded=1;whiteSpace=wrap;html=1;" vertex="1" parent="1">
          <mxGeometry x="320" y="500" width="120" height="60" as="geometry" />
        </mxCell>
        <mxCell id="vHpvUnkVteFoVvthPhQm-24" value="onClick" style="rounded=1;whiteSpace=wrap;html=1;" vertex="1" parent="1">
          <mxGeometry x="230" y="275" width="60" height="30" as="geometry" />
        </mxCell>
        <mxCell id="vHpvUnkVteFoVvthPhQm-29" value="onClick" style="rounded=1;whiteSpace=wrap;html=1;" vertex="1" parent="1">
          <mxGeometry x="230" y="155" width="60" height="30" as="geometry" />
        </mxCell>
        <mxCell id="vHpvUnkVteFoVvthPhQm-32" value="" style="edgeStyle=orthogonalEdgeStyle;rounded=1;orthogonalLoop=1;jettySize=auto;html=1;entryX=1.042;entryY=0.107;entryDx=0;entryDy=0;entryPerimeter=0;strokeColor=none;strokeWidth=2;endArrow=none;" edge="1" parent="1" source="vHpvUnkVteFoVvthPhQm-3" target="vHpvUnkVteFoVvthPhQm-29">
          <mxGeometry relative="1" as="geometry">
            <mxPoint x="320" y="170" as="sourcePoint" />
            <mxPoint x="205.03999999999996" y="169.22000000000003" as="targetPoint" />
          </mxGeometry>
        </mxCell>
        <mxCell id="vHpvUnkVteFoVvthPhQm-41" style="edgeStyle=orthogonalEdgeStyle;rounded=0;orthogonalLoop=1;jettySize=auto;html=1;strokeWidth=2;" edge="1" parent="1" source="vHpvUnkVteFoVvthPhQm-34">
          <mxGeometry relative="1" as="geometry">
            <mxPoint x="200" y="230" as="targetPoint" />
          </mxGeometry>
        </mxCell>
        <mxCell id="vHpvUnkVteFoVvthPhQm-34" value="backEvent.js" style="rounded=1;whiteSpace=wrap;html=1;" vertex="1" parent="1">
          <mxGeometry x="510" y="200" width="120" height="60" as="geometry" />
        </mxCell>
        <mxCell id="vHpvUnkVteFoVvthPhQm-36" style="edgeStyle=orthogonalEdgeStyle;rounded=1;orthogonalLoop=1;jettySize=auto;html=1;entryX=1.033;entryY=0.783;entryDx=0;entryDy=0;entryPerimeter=0;strokeWidth=2;" edge="1" parent="1" source="vHpvUnkVteFoVvthPhQm-35" target="vHpvUnkVteFoVvthPhQm-1">
          <mxGeometry relative="1" as="geometry" />
        </mxCell>
        <mxCell id="vHpvUnkVteFoVvthPhQm-35" value="fetchCat.js" style="rounded=1;whiteSpace=wrap;html=1;" vertex="1" parent="1">
          <mxGeometry x="510" y="450" width="120" height="60" as="geometry" />
        </mxCell>
      </root>
    </mxGraphModel>
  </diagram>
</mxfile>
